<svg id="Capa_1" data-name="Capa 1" xmlns="http://www.w3.org/2000/svg" viewBox="0 0 26 26"><defs><style>.cls-1{fill:#1fa647;}</style></defs><title>whats</title><path class="cls-1" d="M11,13.69a1.28,1.28,0,1,1-1.28-1.28A1.28,1.28,0,0,1,11,13.69Zm5.2-1.28a1.28,1.28,0,1,0,1.28,1.28A1.28,1.28,0,0,0,16.24,12.41Zm5.47,5.21v-.15a12.21,12.21,0,0,1-.51,1.23,6.88,6.88,0,0,0,.21,1,6.39,6.39,0,0,0,3,2.12,3.51,3.51,0,0,1-1.86.23,5.54,5.54,0,0,0,2.59,1.81c-2.74,2.47-7.25,2.53-10.4.61a5.94,5.94,0,0,1-3.54,0c-3.15,1.92-7.66,1.86-10.4-.61A5.47,5.47,0,0,0,3.45,22,3.52,3.52,0,0,1,2,21.7a6.62,6.62,0,0,0,2.43-1.44A7.4,7.4,0,0,0,4.8,18.7a12.21,12.21,0,0,1-.51-1.23v.15H2.74A2.21,2.21,0,0,1,.53,15.41V13A2.2,2.2,0,0,1,1.69,11c0-3.46,1-6.16,3-8S9.44.22,13,.22s6.36.94,8.31,2.79,3,4.56,3,8A2.2,2.2,0,0,1,25.47,13v2.44a2.21,2.21,0,0,1-2.21,2.21Zm-.92-3.92c0-.57,0-1.11-.07-1.63a9.29,9.29,0,0,0-5.13-1.84,2.82,2.82,0,0,1,.85,1.39c-1.34-1-4.15-1.29-5.08-2.33h0C9.88,8.3,9.49,6.9,9.47,7.48a5.31,5.31,0,0,1-4.23,5.27c0,.31,0,.62,0,.95a10.2,10.2,0,0,0,.52,3.22c1.24,1.49,3.28,1.91,5.08,2a2.31,2.31,0,0,1,2-.9c1.19,0,2.15.68,2.15,1.52s-1,1.53-2.15,1.53a2.26,2.26,0,0,1-2-1,10.54,10.54,0,0,1-3.88-.87c1.73,2.56,4.43,3.92,6.11,3.92C15.64,23.16,20.79,19.82,20.79,13.7Zm1.34-2.94H23c-.14-6-3.58-9.21-10-9.21S3.16,4.73,3,10.76h.85a10.64,10.64,0,0,1,2-5c1.59-2,4-3.08,7.16-3.08s5.57,1,7.16,3.08A10.64,10.64,0,0,1,22.13,10.76Z"/></svg>