<?xml version="1.0" encoding="utf-8"?>
<!-- Generator: Adobe Illustrator 23.0.2, SVG Export Plug-In . SVG Version: 6.00 Build 0)  -->
<svg version="1.1" id="Capa_1" xmlns="http://www.w3.org/2000/svg" xmlns:xlink="http://www.w3.org/1999/xlink" x="0px" y="0px"
	 viewBox="0 0 120 120" style="enable-background:new 0 0 120 120;" xml:space="preserve">
<style type="text/css">
	.st0{fill:#1FA648;}
</style>
<g>
	<g>
		<g>
			<path class="st0" d="M101,89.3c-1.8,1.2-3.7,2.2-5.6,3.2l-4.8-12.3c-0.3-0.8-1.2-1.2-2-0.9c-0.8,0.3-1.2,1.2-0.9,2l4.9,12.5
				c-0.4,0.2-1.2,0.6-1.9,0.9c-0.5-1.3-10.2-26.1-10.6-26.9h2.2l3.6,9.1c0.3,0.8,1.2,1.2,2,0.9c0.8-0.3,1.2-1.2,0.9-2l-3.1-7.9h6.8
				c3.5,0,6.3-3,6.3-6.7c0-3.7-2.8-6.7-6.3-6.7H85V42.4c0-4.9-4-9-9-9H37.2l-3.9-12.9c-0.3-0.8-1.1-1.3-1.9-1
				c-0.8,0.3-1.3,1.1-1,1.9L41,56.5c0.2,0.7,0.8,1.1,1.5,1.1c1.5,0,48.5,0,50,0c1.8,0,3.2,1.6,3.2,3.6c0,2-1.4,3.6-3.2,3.6
				c-58.2,0-53.7,0.1-54.5-0.2c-0.9-0.4-1.6-1.2-2-2.2L21.6,15.1c-0.9-3,1.8-5.7,4.4-4.4c1.6,0.8,1.7,2,2.9,6.1
				c0.3,0.8,1.1,1.3,1.9,1c0.8-0.3,1.3-1.1,1-1.9l-1.2-4c-1.1-3.5-4.7-5.5-8.1-4.3c-3.3,1.2-5.1,4.9-4,8.4L33,63.2
				c0.4,1.5,1.3,2.7,2.5,3.5L25.4,92.5c-1.9-1-3.8-2.1-5.6-3.2c-4.8-3-10.8,1.3-9.6,6.7c0.4,1.7,1.4,3.1,2.8,4
				c22.8,14.4,50.6,17.5,75.4,9.2c0.8-0.3,1.3-1.2,1-2c-0.3-0.8-1.2-1.3-2-1c-23.9,8-50.8,5-72.7-8.9c-1.5-1-1.9-2.9-1-4.4
				c1-1.5,2.9-1.9,4.4-1c25.7,16.3,58.8,16.4,84.6,0c2.4-1.5,5.5,0.6,4.9,3.4c-0.2,0.8-0.7,1.6-1.4,2c-4.4,2.8-9.1,5.2-13.9,7.1
				c-0.8,0.3-1.2,1.2-0.9,2c0.3,0.8,1.2,1.2,2,0.9c5-2,9.9-4.5,14.4-7.4c1.4-0.9,2.4-2.3,2.8-4C111.8,90.6,105.8,86.3,101,89.3z
				 M76.7,54.5h-33l-3.9-12.7h36.3c0.3,0,0.6,0.3,0.6,0.6L76.7,54.5L76.7,54.5z M81.9,54.5h-2.1V42.3c0-2.1-1.7-3.8-3.8-3.8H38.8
				l-0.6-2.1h37.9c3.2,0,5.8,2.6,5.8,5.8L81.9,54.5L81.9,54.5z M44,67.9h32.8l0.8,2H43.2L44,67.9z M42,73h36.9l0.8,2.1H41.1L42,73z
				 M28.2,93.9l10.2-26.1c0.4,0,0.8,0,2.2,0c-1.3,3.2-9.6,24.4-10.6,26.9C29.4,94.5,28.7,94.2,28.2,93.9z M33,96l7-17.8h41l7,17.8
				C70.2,102.8,50.6,102.8,33,96z"/>
		</g>
	</g>
</g>
</svg>
