<?xml version="1.0" encoding="utf-8"?>
<!-- Generator: Adobe Illustrator 23.0.2, SVG Export Plug-In . SVG Version: 6.00 Build 0)  -->
<svg version="1.1" id="Capa_1" xmlns="http://www.w3.org/2000/svg" xmlns:xlink="http://www.w3.org/1999/xlink" x="0px" y="0px"
	 viewBox="0 0 120 120" style="enable-background:new 0 0 120 120;" xml:space="preserve">
<style type="text/css">
	.st0{fill:#1FA648;}
</style>
<path class="st0" d="M22.8,52.2c-7.5,0-13.5-6.1-13.5-13.5s6.1-13.5,13.5-13.5s13.5,6.1,13.5,13.5S30.3,52.2,22.8,52.2z"/>
<path class="st0" d="M70.2,43.2c-7.5,0-13.5-6.1-13.5-13.5s6.1-13.5,13.5-13.5s13.5,6.1,13.5,13.5S77.6,43.2,70.2,43.2z"/>
<path class="st0" d="M114.6,38.7H101c-1.9,0-3.4,1.5-3.4,3.4s1.5,3.4,3.4,3.4h5.4L71.7,80.1l-8.9-8.9c-1.3-1.3-3.5-1.3-4.8,0
	L32,97.2H5.9c-1.9,0-3.4,1.5-3.4,3.4c0,1.9,1.5,3.4,3.4,3.4h27.5c0.9,0,1.8-0.4,2.4-1l24.7-24.7l8.9,8.9c1.3,1.3,3.5,1.3,4.8,0
	l37-37v5.4c0,1.9,1.5,3.4,3.4,3.4c1.9,0,3.4-1.5,3.4-3.4V42C117.9,40.2,116.4,38.7,114.6,38.7L114.6,38.7z"/>
<path class="st0" d="M81.4,46.5c-3.2,2.1-7.1,3.4-11.2,3.4c-4.1,0-8-1.2-11.2-3.4c-5.5,3.6-9.1,9.8-9.1,16.9v6.4l3.4-3.4
	c1.9-1.9,4.5-3,7.2-3s5.3,1.1,7.2,3l4.1,4.1l16.4-16.4C86.6,51,84.2,48.4,81.4,46.5L81.4,46.5z"/>
<path class="st0" d="M11.6,55.5c-5.5,3.6-9.1,9.8-9.1,16.9v18h26.7l13.9-13.9v-4.1c0-7.1-3.6-13.3-9.1-16.9
	c-3.2,2.1-7.1,3.4-11.2,3.4S14.9,57.7,11.6,55.5z"/>
</svg>
