<?xml version="1.0" encoding="utf-8"?>
<!-- Generator: Adobe Illustrator 22.1.0, SVG Export Plug-In . SVG Version: 6.00 Build 0)  -->
<svg version="1.1" id="Capa_1" xmlns="http://www.w3.org/2000/svg" xmlns:xlink="http://www.w3.org/1999/xlink" x="0px" y="0px"
	 viewBox="0 0 127.6 127.6" style="enable-background:new 0 0 127.6 127.6;" xml:space="preserve">
<style type="text/css">
	.st0{fill:url(#SVGID_1_);}
	.st1{fill:#FFFFFF;}
</style>
<g>
	<linearGradient id="SVGID_1_" gradientUnits="userSpaceOnUse" x1="65.3811" y1="114.4016" x2="65.3811" y2="10.4746">
		<stop  offset="0" style="stop-color:#80AE40"/>
		<stop  offset="0.5" style="stop-color:#5C973B"/>
		<stop  offset="1" style="stop-color:#80AE40"/>
	</linearGradient>
	<path class="st0" d="M65.4,10.5c-28.7,0-52,23.3-52,52c0,16.8,10.1,30.8,10.1,30.8l-6.3,18.9l19.5-6.4c0,0,12.7,8.6,28.6,8.6
		c28.7,0,52-23.3,52-52C117.3,33.7,94.1,10.5,65.4,10.5z"/>
	<path class="st1" d="M65.4,0.6C31.2,0.6,3.5,28.3,3.5,62.4c0,17,9,32.1,9,32.1L1.7,127.5l33.9-10.8c0,0,12.6,7.6,29.8,7.6
		c34.2,0,61.9-27.7,61.9-61.9C127.2,28.3,99.5,0.6,65.4,0.6z M65.4,114.4c-15.9,0-28.6-8.6-28.6-8.6l-19.5,6.4l6.3-18.9
		c0,0-10.1-14-10.1-30.8c0-28.7,23.3-52,52-52c28.7,0,52,23.3,52,52C117.3,91.1,94.1,114.4,65.4,114.4z"/>
	<path class="st1" d="M41.8,35.5c0,0,1.7-1.1,2.5-1.1c0.9,0,4.9,0,4.9,0s1.3,0.2,1.9,1.6c0.6,1.4,4.7,11,5,11.8
		c0.3,0.7,1.1,2.6-0.2,4.2c-1.3,1.7-4,4.7-4,4.7s-1.1,1-0.1,2.5c0.9,1.5,4.1,6.5,8.4,10.3c4.2,3.8,9.4,6.6,12,7.4
		c2.6,0.8,3.1-0.3,4.1-1.6c1-1.3,4.1-5.2,4.1-5.2s1.1-1.6,3.1-0.6c2.1,1,12.2,5.9,12.2,5.9s1.2,0.2,1.3,1.6c0.1,1.4,0.9,5.5-2.8,9.5
		c-3.7,4-11.5,5.8-15.2,4.8c-3.7-1-15.9-4.2-23.9-11.7s-14.4-15.3-17.1-21c-2.6-5.8-2.5-9.2-2.3-10.8S36.8,38.7,41.8,35.5z"/>
</g>
</svg>
