<svg height="512" viewBox="0 0 58 58" width="512" xmlns="http://www.w3.org/2000/svg"><g id="Page-1" fill="none" fill-rule="evenodd"><g id="030---Give-Pension" fill="rgb(0,0,0)" fill-rule="nonzero"><rect id="Rectangle-path" height="18" rx="1" width="5" y="40"/><path id="Shape" d="m42.254 46.444-13.289 3.345c-.5585599.1399295-1.1321794.2107923-1.708.211h-7.581c-1.5032959.0294013-2.9564361.5459486-4.141 1.472-.297208.205674-.6822701.2349653-1.0071691.0766144s-.5390655-.4796973-.5601743-.8405141.1541256-.7049443.4583434-.9001003c1.5110351-1.1496934 3.3514685-1.7835036 5.25-1.808h3.578c.6603779-.7644164.8864593-1.8123037.6-2.781-.419-1.008-1.692-1.219-2.684-1.219h-3.85c-1.7569363-.0052887-3.4586686-.6143111-4.82-1.725-1.0082314-.8224317-2.2688778-1.2726625-3.57-1.275h-1.93v16.0000045l19.65-.0000045c.8632189.001199 1.7097617-.2377026 2.445-.69l14.171-7.082c.6771319-.3387565.9928609-1.1312313.7341951-1.842818-.2586659-.7115867-1.0095895-1.1163272-1.7461951-.941182z"/><path id="Shape" d="m57.779 34.374c-.3462868-.430222-.9757677-.4982739-1.406-.152-1.4254918 1.1367504-2.9674351 2.1192364-4.6 2.931l-2.72-8.167 6.904-22.695c.1607148-.52853649-.1374635-1.08728508-.666-1.24799994-.5285365-.16071485-1.0872851.13746347-1.248.66599994l-3.743 12.291h-22.3c-.5522847 0-1 .4477153-1 1s.4477153 1 1 1h2v8h-2c-.5522847 0-1 .4477153-1 1s.4477153 1 1 1h4.5l-3.249 7.8c-1.6436974-.7091857-3.2099645-1.5858128-4.674-2.616-.2914269-.2098362-.6729918-.2472966-.9996628-.0981427s-.5482825.4620172-.5806004.8196712.1296206.7051752.4242632.9104715c4.7993271 3.3947168 10.53847 5.2069673 16.417 5.184 6.4638817.0055097 12.7372982-2.1883698 17.789-6.221.4295776-.346212.497595-.9749259.152-1.405zm-25.779-14.374h17.694l-1.218 4h-10.476c-1.1032019.0032948-1.9967052.8967981-2 2v2h-4zm-.885 18.527 3.552-8.527h12.612l2.66 7.989c-5.9963999 2.4815764-12.6956546 2.6730447-18.824.538z"/><path id="Shape" d="m41 13c-1.1045695 0-2-.8954305-2-2 0-.5522847-.4477153-1-1-1s-1 .4477153-1 1c.0068148 1.8184116 1.2393149 3.4034067 3 3.858v.142c0 .5522847.4477153 1 1 1s1-.4477153 1-1v-.142c1.9482742-.5014457 3.2190002-2.3742805 2.9650329-4.3699561-.2539674-1.99567552-1.953264-3.49054869-3.9650329-3.4880439-1.1045695 0-2-.8954305-2-2s.8954305-2 2-2 2 .8954305 2 2c0 .55228475.4477153 1 1 1s1-.44771525 1-1c-.0068148-1.81841162-1.2393149-3.40340667-3-3.858v-.142c0-.55228475-.4477153-1-1-1s-1 .44771525-1 1v.142c-1.9482742.50144572-3.2190002 2.37428054-2.9650329 4.36995608.2539674 1.99567554 1.953264 3.49054871 3.9650329 3.48804392 1.1045695 0 2 .8954305 2 2s-.8954305 2-2 2z"/></g></g></svg>