<?xml version="1.0" encoding="utf-8"?>
<!-- Generator: Adobe Illustrator 23.0.2, SVG Export Plug-In . SVG Version: 6.00 Build 0)  -->
<svg version="1.1" id="Capa_1" xmlns="http://www.w3.org/2000/svg" xmlns:xlink="http://www.w3.org/1999/xlink" x="0px" y="0px"
	 viewBox="0 0 120 120" style="enable-background:new 0 0 120 120;" xml:space="preserve">
<style type="text/css">
	.st0{fill:#1FA648;}
</style>
<g id="Page-1">
	<g>
		<path id="Rectangle-path" class="st0" d="M8.7,79.6h5.4c1,0,1.8,0.8,1.8,1.8v29c0,1-0.8,1.8-1.8,1.8H8.7c-1,0-1.8-0.8-1.8-1.8v-29
			C6.9,80.4,7.7,79.6,8.7,79.6z"/>
		<path id="Shape" class="st0" d="M83.5,91.2l-24.1,6.1c-1,0.3-2.1,0.4-3.1,0.4H42.6c-2.7,0.1-5.4,1-7.5,2.7
			c-0.5,0.4-1.2,0.4-1.8,0.1c-0.6-0.3-1-0.9-1-1.5c0-0.7,0.3-1.3,0.8-1.6c2.7-2.1,6.1-3.2,9.5-3.3h6.5c1.2-1.4,1.6-3.3,1.1-5
			c-0.8-1.8-3.1-2.2-4.9-2.2h-7c-3.2,0-6.3-1.1-8.7-3.1c-1.8-1.5-4.1-2.3-6.5-2.3h-3.5v29l35.6,0c1.6,0,3.1-0.4,4.4-1.3l25.7-12.8
			c1.2-0.6,1.8-2.1,1.3-3.3C86.2,91.7,84.9,90.9,83.5,91.2L83.5,91.2z"/>
		<path class="st0" d="M111.7,69.4c-0.6-0.8-1.8-0.9-2.6-0.3c-2.6,2.1-5.4,3.8-8.3,5.3l-4.9-14.8l12.5-41.2c0.3-1-0.2-2-1.2-2.3
			c-1-0.3-2,0.2-2.3,1.2l-6.8,22.3H57.7c-1,0-1.8,0.8-1.8,1.8s0.8,1.8,1.8,1.8h3.6v14.5h-3.6c-1,0-1.8,0.8-1.8,1.8s0.8,1.8,1.8,1.8
			h8.2l-5.9,14.1c-3-1.3-5.8-2.9-8.5-4.7c-0.5-0.4-1.2-0.4-1.8-0.2s-1,0.8-1.1,1.5c-0.1,0.6,0.2,1.3,0.8,1.7
			c8.7,6.2,19.1,9.4,29.8,9.4c11.7,0,23.1-4,32.3-11.3C112.2,71.3,112.3,70.1,111.7,69.4z M64.9,43.3H97l-2.2,7.3h-19
			c-2,0-3.6,1.6-3.6,3.6v3.6h-7.3V43.3z M63.3,76.9l6.4-15.5h22.9l4.8,14.5C86.6,80.4,74.4,80.8,63.3,76.9L63.3,76.9z"/>
		<path class="st0" d="M81.3,30.6c-2,0-3.6-1.6-3.6-3.6c0-1-0.8-1.8-1.8-1.8S74,26,74,27c0,3.3,2.2,6.2,5.4,7v0.3
			c0,1,0.8,1.8,1.8,1.8c1,0,1.8-0.8,1.8-1.8V34c3.5-0.9,5.8-4.3,5.4-7.9s-3.5-6.3-7.2-6.3c-2,0-3.6-1.6-3.6-3.6s1.6-3.6,3.6-3.6
			c2,0,3.6,1.6,3.6,3.6c0,1,0.8,1.8,1.8,1.8s1.8-0.8,1.8-1.8c0-3.3-2.2-6.2-5.4-7V8.8c0-1-0.8-1.8-1.8-1.8c-1,0-1.8,0.8-1.8,1.8v0.3
			c-3.5,0.9-5.8,4.3-5.4,7.9s3.5,6.3,7.2,6.3c2,0,3.6,1.6,3.6,3.6S83.3,30.6,81.3,30.6z"/>
	</g>
</g>
</svg>
