<?xml version="1.0" encoding="utf-8"?>
<!-- Generator: Adobe Illustrator 22.1.0, SVG Export Plug-In . SVG Version: 6.00 Build 0)  -->
<svg version="1.1" id="Camada_1" xmlns="http://www.w3.org/2000/svg" xmlns:xlink="http://www.w3.org/1999/xlink" x="0px" y="0px"
	 viewBox="0 0 195.4 191.9" style="enable-background:new 0 0 195.4 191.9;" xml:space="preserve">
<style type="text/css">
	.st0{opacity:0.5;}
	.st1{opacity:0.5;fill:#606060;}
	.st2{opacity:0.57;fill:#606060;}
	.st3{fill:#F9F9F9;}
</style>
<g class="st0">
	<polygon class="st1" points="78.3,131.1 78.3,62.1 138.8,96.6 	"/>
	<path class="st2" d="M100.8,6.2c-49.4,0-89.4,40-89.4,89.4s40,89.4,89.4,89.4s89.4-40,89.4-89.4S150.1,6.2,100.8,6.2z M100.8,175.9
		c-44.3,0-80.3-35.9-80.3-80.3c0-44.3,35.9-80.3,80.3-80.3c44.3,0,80.3,35.9,80.3,80.3C181,139.9,145.1,175.9,100.8,175.9z"/>
	<polygon class="st3" points="75.7,130.1 75.7,61.1 136.2,95.6 	"/>
	<path class="st3" d="M98.2,6.2c-49.4,0-89.4,40-89.4,89.4s40,89.4,89.4,89.4s89.4-40,89.4-89.4S147.5,6.2,98.2,6.2z M98.2,175.9
		c-44.3,0-80.3-35.9-80.3-80.3c0-44.3,35.9-80.3,80.3-80.3c44.3,0,80.3,35.9,80.3,80.3C178.4,139.9,142.5,175.9,98.2,175.9z"/>
</g>
</svg>
